<?xml version="1.0" encoding="UTF-8" standalone="no"?>
<svg
   width="153.74886"
   height="27.529221"
   viewBox="0 -461 8494.4845 1520.666"
   version="1.1"
   id="svg13"
   xmlns:xlink="http://www.w3.org/1999/xlink"
   xmlns="http://www.w3.org/2000/svg"
   xmlns:svg="http://www.w3.org/2000/svg">
  <defs
     id="defs1">
    <path
       id="MJX-12-NCM-SS-1D5C9"
       d="m 295,-13 c 57,0 103,26 138,77 31,46 47,99 47,158 0,56 -12,107 -37,152 -30,54 -71,81 -123,81 -59,0 -111,-18 -157,-55 v 44 H 82 v -638 h 84 V 38 c 39,-34 82,-51 129,-51 m -39,68 c -32,0 -59,15 -81,45 -6,8 -9,19 -9,32 v 197 c 25,37 59,55 100,55 39,0 71,-18 96,-53 23,-32 34,-68 34,-109 C 396,136 338,55 256,55 Z" />
    <path
       id="MJX-12-NCM-N-2062"
       d="" />
    <path
       id="MJX-12-NCM-I-1D707"
       d="m 572,142 c 0,9 -5,14 -16,14 -8,0 -14,-7 -17,-20 C 519,56 495,16 468,16 c -17,0 -26,14 -26,42 0,17 6,51 19,101 l 28,107 c 9,36 17,61 23,92 l 6,28 c 2,7 3,12 3,14 0,21 -11,31 -33,31 -22,0 -36,-12 -42,-37 L 374,108 C 374,97 358,77 326,47 304,26 279,16 250,16 c -46,0 -69,27 -69,82 0,19 4,46 13,83 l 42,166 c 8,31 13,53 15,64 0,21 -11,31 -33,31 -22,0 -36,-13 -43,-39 L 33,-169 c -2,-8 -3,-13 -3,-16 0,-21 11,-31 32,-31 15,0 27,8 38,23 3,7 20,76 53,207 24,-18 55,-27 93,-27 59,0 98,31 129,67 11,-37 44,-67 91,-67 69,0 90,81 106,155 z" />
    <path
       id="MJX-12-NCM-SS-1D5CE"
       d="m 237,51 c -56,0 -72,12 -72,64 V 444 H 81 V 111 c 0,-81 36,-122 108,-122 67,0 122,18 165,53 V 0 h 81 V 444 H 351 V 155 C 351,89 304,51 237,51 Z" />
    <path
       id="MJX-12-NCM-SS-1D5C7"
       d="m 260,387 c 65,0 91,-32 91,-97 V 0 h 84 v 297 c 0,105 -46,158 -138,158 -55,0 -101,-22 -138,-67 v 62 H 81 V 0 h 84 v 245 c 0,72 29,142 95,142 z" />
    <path
       id="MJX-12-NCM-SS-1D5D2"
       d="m 237,81 c -4,19 -11,43 -22,74 -34,98 -89,226 -117,289 H 12 L 204,1 169,-86 c -9,-23 -25,-55 -52,-55 -24,0 -51,6 -81,18 l 7,-73 c 25,-6 49,-9 74,-9 65,0 91,57 115,115 L 448,444 H 366 C 291,261 248,140 237,81 Z" />
    <path
       id="MJX-12-NCM-SS-1D5BE"
       d="M 112,215 H 414 C 414,353 363,461 236,461 177,461 128,436 89,386 53,340 35,287 35,226 35,162 55,107 94,61 c 41,-48 93,-72 156,-72 58,0 111,18 160,53 l -6,74 C 356,77 305,57 251,57 170,57 115,133 112,215 m 238,62 H 117 c 13,56 57,116 119,116 67,0 104,-54 114,-116 z" />
    <path
       id="MJX-12-NCM-SS-1D5BC"
       d="m 120,223 c 0,92 45,167 136,167 47,0 94,-15 141,-46 l 14,73 C 359,446 307,461 255,461 191,461 139,437 98,390 57,343 36,287 36,222 36,159 56,105 96,60 c 41,-47 93,-71 155,-71 59,0 114,17 164,52 l -7,76 C 360,79 308,60 252,60 168,60 120,135 120,223 Z" />
    <path
       id="MJX-12-NCM-SS-1D5CC"
       d="m 360,130 c 0,35 -12,64 -36,89 l -3,4 c -27,24 -66,41 -116,50 -41,8 -67,17 -78,27 -11,10 -17,23 -17,38 0,38 26,57 79,57 50,0 97,-13 142,-40 l 13,73 c -47,22 -96,33 -145,33 -93,0 -166,-39 -166,-133 0,-63 52,-114 115,-128 31,-7 54,-12 70,-15 33,-8 65,-26 65,-62 C 283,80 254,59 195,59 142,59 91,76 41,110 L 28,34 c 59,-30 115,-45 168,-45 97,0 164,46 164,141 z" />
  </defs>
  <g
     stroke="#000000"
     fill="#000000"
     stroke-width="0"
     transform="matrix(1,0,0,-1,-82,-0.06641116)"
     id="g13">
    <g
       data-mml-node="math"
       data-latex="\mathsf{p}\mu\mathsf{unyecs}"
       data-semantic-type="infixop"
       data-semantic-role="implicit"
       data-semantic-annotation="clearspeak:unit;depth:1"
       data-semantic-id="5"
       data-semantic-children="0,1,2"
       data-semantic-content="3,4"
       data-semantic-attributes="latex:\mathsf{p}\mu\mathsf{unyecs}"
       data-semantic-owns="0 3 1 4 2"
       aria-level="0"
       data-speech-node="true"
       data-semantic-structure="(5 0 3 1 4 2)"
       id="g12"
       transform="matrix(2.2466239,0,0,2.2466239,-102.22316,-574.69361)">
      <g
         data-mml-node="TeXAtom"
         data-mjx-texclass="ORD"
         data-latex="\mathsf{p}"
         id="g2">
        <g
           data-mml-node="mi"
           data-latex="p"
           data-semantic-type="identifier"
           data-semantic-role="latinletter"
           data-semantic-font="sans-serif"
           data-semantic-annotation="clearspeak:simple;nemeth:number;depth:2"
           data-semantic-id="0"
           data-semantic-parent="5"
           data-semantic-attributes="latex:\mathsf{p};texclass:ORD"
           aria-level="1"
           data-speech-node="true"
           id="g1">
          <use
             data-c="1D5C9"
             xlink:href="#MJX-12-NCM-SS-1D5C9"
             id="use1"
             style="fill:#3776ab;fill-opacity:1" />
        </g>
      </g>
      <g
         data-mml-node="mo"
         data-semantic-type="operator"
         data-semantic-role="multiplication"
         data-semantic-annotation="depth:2"
         data-semantic-id="3"
         data-semantic-parent="5"
         data-semantic-added="true"
         data-semantic-operator="infixop,⁢"
         aria-level="1"
         data-speech-node="true"
         transform="translate(517)"
         id="g3">
        <use
           data-c="2062"
           xlink:href="#MJX-12-NCM-N-2062"
           id="use2" />
      </g>
      <g
         data-mml-node="mi"
         data-latex="\mu"
         data-semantic-type="identifier"
         data-semantic-role="greekletter"
         data-semantic-font="italic"
         data-semantic-annotation="clearspeak:simple;depth:2"
         data-semantic-id="1"
         data-semantic-parent="5"
         data-semantic-attributes="latex:\mu"
         aria-level="1"
         data-speech-node="true"
         transform="translate(517)"
         id="g4">
        <use
           data-c="1D707"
           xlink:href="#MJX-12-NCM-I-1D707"
           id="use3"
           style="fill:#ffd43b;fill-opacity:1" />
      </g>
      <g
         data-mml-node="mo"
         data-semantic-type="operator"
         data-semantic-role="multiplication"
         data-semantic-annotation="depth:2"
         data-semantic-id="4"
         data-semantic-parent="5"
         data-semantic-added="true"
         data-semantic-operator="infixop,⁢"
         aria-level="1"
         data-speech-node="true"
         transform="translate(1120)"
         id="g5">
        <use
           data-c="2062"
           xlink:href="#MJX-12-NCM-N-2062"
           id="use4" />
      </g>
      <g
         data-mml-node="TeXAtom"
         data-mjx-texclass="ORD"
         data-latex="\mathsf{unyecs}"
         transform="translate(1120)"
         id="g11">
        <g
           data-mml-node="mi"
           data-latex="unyecs"
           data-semantic-type="identifier"
           data-semantic-role="unknown"
           data-semantic-font="sans-serif"
           data-semantic-annotation="depth:2"
           data-semantic-id="2"
           data-semantic-parent="5"
           data-semantic-attributes="latex:\mathsf{unyecs};texclass:ORD"
           aria-level="1"
           data-speech-node="true"
           id="g10">
          <use
             data-c="1D5CE"
             xlink:href="#MJX-12-NCM-SS-1D5CE"
             id="use5"
             style="fill:#3776ab;fill-opacity:1" />
          <use
             data-c="1D5C7"
             xlink:href="#MJX-12-NCM-SS-1D5C7"
             transform="translate(517)"
             id="use6"
             style="fill:#3776ab;fill-opacity:1" />
          <use
             data-c="1D5D2"
             xlink:href="#MJX-12-NCM-SS-1D5D2"
             transform="translate(1034)"
             id="use7"
             style="fill:#3776ab;fill-opacity:1" />
          <use
             data-c="1D5BE"
             xlink:href="#MJX-12-NCM-SS-1D5BE"
             transform="translate(1495)"
             id="use8"
             style="fill:#ffd43b;fill-opacity:1" />
          <use
             data-c="1D5BC"
             xlink:href="#MJX-12-NCM-SS-1D5BC"
             transform="translate(1939)"
             id="use9"
             style="fill:#ffd43b;fill-opacity:1" />
          <use
             data-c="1D5CC"
             xlink:href="#MJX-12-NCM-SS-1D5CC"
             transform="translate(2383)"
             id="use10"
             style="fill:#ffd43b;fill-opacity:1" />
        </g>
      </g>
    </g>
  </g>
</svg>
